<svg xmlns="http://www.w3.org/2000/svg" viewBox="0 0 49.98 60.93"><defs><style>.cls-1{fill:none;stroke:#222;stroke-linecap:round;stroke-linejoin:round;stroke-width:1.65px;}</style></defs><title>security</title><g id="Layer_2" data-name="Layer 2"><g id="Icons"><g id="_1" data-name="1"><path class="cls-1" d="M47,8.63a13.19,13.19,0,0,0-2.69-.16,22.66,22.66,0,0,1-13.47-4L26.21,1.21a2.13,2.13,0,0,0-2.44,0L19.29,4.36A22.4,22.4,0,0,1,6,8.44a14.57,14.57,0,0,0-3,.18A2.7,2.7,0,0,0,.83,11.41L2.19,34.53a20.46,20.46,0,0,0,8.54,15.6L25,60.1l14.26-10a20.46,20.46,0,0,0,8.54-15.6l1.36-23.12A2.7,2.7,0,0,0,47,8.63Z"/><circle class="cls-1" cx="24.99" cy="29.09" r="12.45"/><polyline class="cls-1" points="20.04 29.72 23.44 33.12 29.93 25.06"/></g></g></g></svg>